<mxfile host="app.diagrams.net" modified="2022-04-09T17:35:02.861Z" agent="5.0 (Windows NT 10.0; Win64; x64) AppleWebKit/537.36 (KHTML, like Gecko) Chrome/99.0.4844.74 Safari/537.36" etag="4sjYYI9VoihNbHEUh5hg" version="17.4.1" type="github">
  <diagram id="-XEXEjj-fME7CoD7oxA_" name="Page-1">
    <mxGraphModel dx="1038" dy="547" grid="1" gridSize="10" guides="1" tooltips="1" connect="1" arrows="1" fold="1" page="1" pageScale="1" pageWidth="850" pageHeight="1100" math="0" shadow="0">
      <root>
        <mxCell id="0" />
        <mxCell id="1" parent="0" />
        <mxCell id="RCF_ouRWlhcYUw14P9VE-2" value="&lt;b&gt;PGS_USB&lt;/b&gt;&lt;br&gt;(linux shared directory)" style="rounded=0;whiteSpace=wrap;html=1;" vertex="1" parent="1">
          <mxGeometry x="265" y="40" width="140" height="60" as="geometry" />
        </mxCell>
        <mxCell id="RCF_ouRWlhcYUw14P9VE-3" value="" style="endArrow=classic;html=1;rounded=0;exitX=0.5;exitY=1;exitDx=0;exitDy=0;" edge="1" parent="1" source="RCF_ouRWlhcYUw14P9VE-2">
          <mxGeometry width="50" height="50" relative="1" as="geometry">
            <mxPoint x="400" y="300" as="sourcePoint" />
            <mxPoint x="335" y="160" as="targetPoint" />
          </mxGeometry>
        </mxCell>
        <mxCell id="RCF_ouRWlhcYUw14P9VE-4" value="" style="endArrow=none;html=1;rounded=0;" edge="1" parent="1">
          <mxGeometry width="50" height="50" relative="1" as="geometry">
            <mxPoint x="500" y="160" as="sourcePoint" />
            <mxPoint x="140" y="160" as="targetPoint" />
          </mxGeometry>
        </mxCell>
        <mxCell id="RCF_ouRWlhcYUw14P9VE-5" value="&lt;font style=&quot;font-size: 12px&quot;&gt;&lt;span style=&quot;font-size: 16px&quot;&gt;&lt;b&gt;Weekly&lt;/b&gt;&lt;/span&gt;&lt;br&gt;&lt;div&gt;&lt;span&gt;USB_stick_1.1.0-alpha.1.zip&lt;/span&gt;&lt;/div&gt;&lt;div&gt;&lt;span&gt;USB_stick_1.1.0-alpha.2.zip&lt;/span&gt;&lt;/div&gt;&lt;div&gt;&lt;span&gt;USB_stick_1.1.0-alpha.3.zip&lt;/span&gt;&lt;/div&gt;&lt;div&gt;&lt;span&gt;USB_stick_1.1.0-alpha.n+1.zip&lt;/span&gt;&lt;/div&gt;&lt;/font&gt;" style="rounded=0;whiteSpace=wrap;html=1;" vertex="1" parent="1">
          <mxGeometry x="46" y="190" width="174" height="120" as="geometry" />
        </mxCell>
        <mxCell id="RCF_ouRWlhcYUw14P9VE-6" value="&lt;b&gt;&lt;font style=&quot;font-size: 16px&quot;&gt;Production&lt;/font&gt;&lt;/b&gt;&lt;br&gt;&lt;div&gt;USB_stick_1.0.0.zip&lt;/div&gt;&lt;div&gt;USB_stick_1.0.1.zip&lt;/div&gt;&lt;div&gt;USB_stick_1.0.2.zip&lt;/div&gt;&lt;div&gt;USB_stick_2.0.0.zip&lt;/div&gt;" style="rounded=0;whiteSpace=wrap;html=1;" vertex="1" parent="1">
          <mxGeometry x="440" y="190" width="120" height="120" as="geometry" />
        </mxCell>
        <mxCell id="RCF_ouRWlhcYUw14P9VE-7" value="&lt;font style=&quot;font-size: 12px&quot;&gt;&lt;span style=&quot;font-size: 16px&quot;&gt;&lt;b&gt;Release&lt;/b&gt;&lt;/span&gt;&lt;br&gt;&lt;div&gt;&lt;span&gt;USB_stick_1.1.0-release.1.zip&lt;/span&gt;&lt;/div&gt;&lt;div&gt;&lt;span&gt;USB_stick_1.1.1-beta.2.zip&lt;/span&gt;&lt;/div&gt;&lt;div&gt;&lt;span&gt;USB_stick_1.1.1-beta.3.zip&lt;/span&gt;&lt;/div&gt;&lt;div&gt;USB_stick_1.1.4-beta.n+1.zip&lt;/div&gt;&lt;/font&gt;" style="rounded=0;whiteSpace=wrap;html=1;" vertex="1" parent="1">
          <mxGeometry x="250" y="190" width="170" height="120" as="geometry" />
        </mxCell>
        <mxCell id="RCF_ouRWlhcYUw14P9VE-11" value="" style="endArrow=classic;html=1;rounded=0;entryX=0.5;entryY=0;entryDx=0;entryDy=0;" edge="1" parent="1" target="RCF_ouRWlhcYUw14P9VE-6">
          <mxGeometry width="50" height="50" relative="1" as="geometry">
            <mxPoint x="500" y="160" as="sourcePoint" />
            <mxPoint x="350" y="200" as="targetPoint" />
          </mxGeometry>
        </mxCell>
        <mxCell id="RCF_ouRWlhcYUw14P9VE-18" value="" style="endArrow=classic;html=1;rounded=0;entryX=0.543;entryY=0.002;entryDx=0;entryDy=0;entryPerimeter=0;" edge="1" parent="1" target="RCF_ouRWlhcYUw14P9VE-5">
          <mxGeometry width="50" height="50" relative="1" as="geometry">
            <mxPoint x="140" y="160" as="sourcePoint" />
            <mxPoint x="510" y="200" as="targetPoint" />
          </mxGeometry>
        </mxCell>
        <mxCell id="RCF_ouRWlhcYUw14P9VE-19" value="" style="endArrow=classic;html=1;rounded=0;entryX=0.5;entryY=0;entryDx=0;entryDy=0;" edge="1" parent="1" target="RCF_ouRWlhcYUw14P9VE-7">
          <mxGeometry width="50" height="50" relative="1" as="geometry">
            <mxPoint x="335" y="160" as="sourcePoint" />
            <mxPoint x="510" y="200" as="targetPoint" />
          </mxGeometry>
        </mxCell>
      </root>
    </mxGraphModel>
  </diagram>
</mxfile>
